<svg width="24" height="24" viewBox="0 0 24 24" fill="none" xmlns="http://www.w3.org/2000/svg">
<path d="M20.3789 4.87845L19.0749 3.57448C17.9217 2.42127 16.0585 2.40057 14.8799 3.52788L13.3786 4.96394L18.9573 10.5427L20.3789 9.1211C21.5505 7.94952 21.5505 6.05003 20.3789 4.87845Z" fill="white"/>
<path fill-rule="evenodd" clip-rule="evenodd" d="M6.18299 11.8467L11.933 6.34673L17.5431 11.9569L11.6267 17.8733C11.2178 18.2822 10.6994 18.5642 10.1339 18.6854L5.48891 19.6808C4.78542 19.8315 4.1577 19.2123 4.2988 18.5069L5.31492 13.4263C5.43553 12.8232 5.73857 12.2718 6.18299 11.8467ZM13.2073 12.2069C13.5978 11.8164 13.5978 11.1832 13.2073 10.7927C12.8168 10.4021 12.1836 10.4021 11.7931 10.7927L9.29311 13.2927C8.90259 13.6832 8.90259 14.3164 9.29311 14.7069C9.68363 15.0974 10.3168 15.0974 10.7073 14.7069L13.2073 12.2069Z" fill="white"/>
</svg>
