<svg width="30" height="30" viewBox="0 0 30 30" fill="none" xmlns="http://www.w3.org/2000/svg">
<path d="M5 14.289L4.60828 14.659C4.10638 15.133 3.31525 15.1104 2.84124 14.6085C2.36722 14.1066 2.38983 13.3155 2.89172 12.8415L12.4252 3.83767C13.8704 2.47273 16.1296 2.47273 17.5748 3.83766L27.1083 12.8415C27.6102 13.3155 27.6328 14.1066 27.1588 14.6085C26.6848 15.1104 25.8936 15.133 25.3917 14.659L25 14.289V23.7502C25 25.131 23.8807 26.2502 22.5 26.2502H18.125C17.7798 26.2502 17.5 25.9704 17.5 25.6252V18.7502C17.5 17.3695 16.3807 16.2502 15 16.2502C13.6193 16.2502 12.5 17.3695 12.5 18.7502V25.6252C12.5 25.9704 12.2202 26.2502 11.875 26.2502H7.5C6.11929 26.2502 5 25.131 5 23.7502V14.289Z" fill="white"/>
</svg>
