<svg width="24" height="24" viewBox="0 0 24 24" fill="none" xmlns="http://www.w3.org/2000/svg">
<g clip-path="url(#clip0_565_1894)">
<path fill-rule="evenodd" clip-rule="evenodd" d="M0 3.35429C0 1.97504 1.11811 0.856934 2.49735 0.856934H21.5026C22.8819 0.856934 24 1.97504 24 3.35429V16.3596C24 17.7389 22.8819 18.8569 21.5026 18.8569H14.6005L15.518 21.4205H17.1428C17.8529 21.4205 18.4286 21.9961 18.4286 22.7062C18.4286 23.4162 17.8529 23.9919 17.1428 23.9919H6.85711C6.14703 23.9919 5.57139 23.4162 5.57139 22.7062C5.57139 21.9961 6.14703 21.4205 6.85711 21.4205H8.48205L9.39953 18.8569H2.49735C1.11811 18.8569 0 17.7389 0 16.3596V3.35429ZM3.53834 9.48036C3.53834 8.88864 4.01803 8.40893 4.60977 8.40893H6.10977V6.90893C6.10977 6.31721 6.58946 5.8375 7.18119 5.8375C7.77291 5.8375 8.25262 6.31721 8.25262 6.90893V8.40893H9.75262C10.3443 8.40893 10.8241 8.88864 10.8241 9.48036C10.8241 10.0721 10.3443 10.5518 9.75262 10.5518H8.25262V12.0518C8.25262 12.6435 7.77291 13.1232 7.18119 13.1232C6.58946 13.1232 6.10977 12.6435 6.10977 12.0518V10.5518H4.60977C4.01803 10.5518 3.53834 10.0721 3.53834 9.48036ZM17.3242 7.80888C17.3242 8.63731 17.9959 9.30888 18.8242 9.30888C19.6527 9.30888 20.3242 8.63731 20.3242 7.80888C20.3242 6.98045 19.6527 6.30888 18.8242 6.30888C17.9959 6.30888 17.3242 6.98045 17.3242 7.80888ZM13.9964 11.1519C13.9964 11.9803 14.6679 12.6519 15.4964 12.6519C16.3248 12.6519 16.9964 11.9803 16.9964 11.1519C16.9964 10.3234 16.3248 9.65185 15.4964 9.65185C14.6679 9.65185 13.9964 10.3234 13.9964 11.1519Z" fill="white"/>
</g>
<defs>
<clipPath id="clip0_565_1894">
<rect width="24" height="24" fill="white"/>
</clipPath>
</defs>
</svg>
