<svg width="24" height="24" viewBox="0 0 24 24" fill="none" xmlns="http://www.w3.org/2000/svg">
<g clip-path="url(#clip0_565_1906)">
<path fill-rule="evenodd" clip-rule="evenodd" d="M11.9998 0.474609C11.6597 0.474609 11.3266 0.571926 11.04 0.755072C10.757 0.935877 10.5309 1.19288 10.3876 1.4964L7.66606 6.99084C7.66071 7.00164 7.65559 7.01254 7.6507 7.02357L7.64515 7.03044L7.63692 7.03365C7.62648 7.03479 7.61606 7.03615 7.60567 7.03769L1.61324 7.92545C1.28203 7.95766 0.966195 8.08195 0.701655 8.28458C0.427931 8.49425 0.220876 8.77879 0.105573 9.10373C-0.00973011 9.42867 -0.0283355 9.78009 0.0520115 10.1154C0.132047 10.4494 0.306851 10.7531 0.555364 10.9901L4.94184 15.2224L4.95183 15.2319C4.95809 15.2378 4.9628 15.2451 4.96551 15.2532C4.96822 15.2613 4.96886 15.27 4.96735 15.2785L3.92112 21.4013C3.86369 21.7329 3.90005 22.0754 4.02658 22.387C4.15328 22.6994 4.3651 22.9697 4.63789 23.1675C4.91071 23.3652 5.23354 23.4825 5.56968 23.5058C5.90515 23.5291 6.24043 23.4579 6.53751 23.3006L6.53931 23.2995L11.9384 20.4461C11.9578 20.4377 11.9787 20.4333 11.9999 20.4333C12.021 20.4333 12.042 20.4377 12.0613 20.4461L17.4604 23.2995C17.7576 23.4574 18.0943 23.5293 18.43 23.5058C18.7661 23.4825 19.0889 23.3652 19.3618 23.1675C19.6346 22.9697 19.8465 22.6994 19.9732 22.387C20.0997 22.0754 20.1362 21.7346 20.0789 21.4032L20.0786 21.4013L19.0334 15.2841L19.0324 15.2785C19.0308 15.27 19.0315 15.2613 19.0342 15.2532C19.0368 15.2451 19.0416 15.2378 19.0478 15.2319L19.0579 15.2224L23.4444 10.9901C23.6928 10.7531 23.8677 10.4494 23.9477 10.1154C24.028 9.78009 24.0094 9.42867 23.8941 9.10373C23.7789 8.77879 23.5718 8.49425 23.298 8.28458C23.0335 8.08195 22.7177 7.95766 22.3865 7.92545L16.394 7.03769C16.3837 7.03615 16.3732 7.03479 16.3628 7.03365L16.3545 7.03044L16.349 7.02357C16.3441 7.01254 16.339 7.00164 16.3336 6.99084L13.6121 1.49638C13.4688 1.19287 13.2427 0.935872 12.9597 0.755072C12.6731 0.571926 12.34 0.474609 11.9998 0.474609Z" fill="white"/>
</g>
<defs>
<clipPath id="clip0_565_1906">
<rect width="24" height="24" fill="white"/>
</clipPath>
</defs>
</svg>
