<svg width="24" height="24" viewBox="0 0 24 24" fill="none" xmlns="http://www.w3.org/2000/svg">
<g clip-path="url(#clip0_565_1902)">
<path fill-rule="evenodd" clip-rule="evenodd" d="M11.2234 17.5942L6.40575 12.7766C6.93542 11.8896 7.46314 10.9725 7.98711 10.0619C9.72919 7.03438 11.4299 4.07871 13.0232 2.54136C17.3499 -1.78545 23.2766 0.723369 23.2766 0.723369C23.2766 0.723369 25.7854 6.64999 21.4586 10.9768C19.9339 12.557 17.0248 14.2322 14.0204 15.9623C13.0844 16.5013 12.1389 17.0458 11.2234 17.5942ZM14.893 6.39557C14.893 4.89806 16.1069 3.68408 17.6045 3.68408C19.1019 3.68408 20.316 4.89806 20.316 6.39557C20.316 7.89309 19.1019 9.10707 17.6045 9.10707C16.1069 9.10707 14.893 7.89309 14.893 6.39557ZM7.87999 5.9981C5.44934 5.35128 3.16857 6.54895 1.14488 8.40519C0.737822 8.77858 0.822833 9.43167 1.29597 9.71671L4.56211 11.6843L4.56588 11.6779C5.03703 10.8889 5.56368 9.97502 6.09727 9.0491C6.70654 7.99179 7.32507 6.91846 7.87999 5.9981ZM12.3158 19.4378L14.2833 22.7038C14.5684 23.177 15.2215 23.262 15.5949 22.855C17.4518 20.8306 18.6495 18.5491 18.0014 16.1175C17.1076 16.6561 16.1678 17.1984 15.2368 17.7346L15.0948 17.8164C14.1544 18.3579 13.2238 18.8938 12.3246 19.4325L12.3158 19.4378ZM4.49508 16.0164C4.95543 16.0083 5.4127 16.093 5.83963 16.2654C6.26654 16.4378 6.65436 16.6945 6.97992 17.0201C7.3055 17.3457 7.56216 17.7334 7.7346 18.1605C7.90704 18.5873 7.99173 19.0445 7.9836 19.505C7.97547 19.9653 7.87471 20.4192 7.68732 20.8399C7.50089 21.2583 7.23252 21.6351 6.89806 21.948C6.51789 22.3121 5.92299 22.5969 5.37147 22.8159C4.78342 23.0498 4.11242 23.2586 3.48593 23.4295C2.85735 23.6011 2.25699 23.7391 1.80362 23.8291C1.57847 23.8737 1.37986 23.9085 1.22764 23.9292C1.15456 23.9391 1.07385 23.9484 0.99935 23.9517C0.965578 23.9532 0.904536 23.9551 0.834734 23.9484C0.801274 23.9451 0.736497 23.9374 0.659462 23.9145C0.608613 23.8992 0.411082 23.839 0.246519 23.647C0.105569 23.4826 0.0671959 23.311 0.0579516 23.2697C0.0431326 23.2035 0.0386025 23.1475 0.0368882 23.1177C0.0333319 23.0559 0.0360207 23.0013 0.038125 22.9687C0.0426898 22.8982 0.0524145 22.8206 0.062994 22.7479C0.0848918 22.5972 0.120468 22.4002 0.166041 22.1757C0.257705 21.7239 0.396874 21.1263 0.569299 20.5005C0.741122 19.8766 0.950391 19.2087 1.18435 18.6231C1.40392 18.0735 1.68862 17.4813 2.05203 17.1019C2.36496 16.7675 2.74174 16.4991 3.16015 16.3127C3.58071 16.1253 4.03473 16.0245 4.49508 16.0164Z" fill="white"/>
</g>
<defs>
<clipPath id="clip0_565_1902">
<rect width="24" height="24" fill="white"/>
</clipPath>
</defs>
</svg>
