<svg width="24" height="24" viewBox="0 0 24 24" fill="none" xmlns="http://www.w3.org/2000/svg">
<path d="M8.20708 4.29292L10.2929 2.20713C10.9228 1.57716 12 2.02333 12 2.91424V4.00002C16.4182 4.00002 20 7.58174 20 12C20 12.5523 19.5523 13 19 13C18.4477 13 18 12.5523 18 12C18 8.68631 15.3137 6.00002 12 6.00002L12 7.08581C12 7.97671 10.9228 8.42288 10.2929 7.79292L8.20708 5.70713C7.81655 5.31661 7.81655 4.68344 8.20708 4.29292Z" fill="white"/>
<path d="M6 12C6 11.4477 5.55228 11 5 11C4.44772 11 4 11.4477 4 12C4 16.4183 7.58172 20 12 20V21.0858C12 21.9767 13.0771 22.4229 13.7071 21.7929L15.7929 19.7071C16.1834 19.3166 16.1834 18.6834 15.7929 18.2929L13.7071 16.2071C13.0771 15.5771 12 16.0233 12 16.9142V18C8.68629 18 6 15.3137 6 12Z" fill="white"/>
</svg>
