<svg width="30" height="30" viewBox="0 0 30 30" fill="none" xmlns="http://www.w3.org/2000/svg">
<path fill-rule="evenodd" clip-rule="evenodd" d="M11.0023 4.15887C11.0975 3.20717 11.8983 2.48242 12.8548 2.48242H16.9319C17.8884 2.48242 18.6892 3.20717 18.7844 4.15887L18.9156 5.47161C18.9378 5.69276 19.0771 5.88381 19.2765 5.98205C19.6724 6.17716 20.0535 6.39788 20.4175 6.64205C20.6023 6.76601 20.8378 6.79138 21.0406 6.69984L22.2444 6.15656C23.1162 5.76313 24.1443 6.0943 24.6225 6.92261L26.6611 10.4535C27.1393 11.2818 26.9121 12.3377 26.1354 12.896L25.0624 13.6674C24.8821 13.797 24.7863 14.013 24.8008 14.2346C24.8151 14.4525 24.8223 14.6722 24.8223 14.8937C24.8223 15.1151 24.8151 15.3349 24.8008 15.5528C24.7863 15.7744 24.8821 15.9904 25.0624 16.12L26.1354 16.8914C26.9121 17.4496 27.1393 18.5056 26.6611 19.3339L24.6225 22.8648C24.1443 23.6931 23.1162 24.0243 22.2444 23.6308L21.0406 23.0875C20.8377 22.996 20.6023 23.0214 20.4175 23.1453C20.0535 23.3895 19.6724 23.6102 19.2765 23.8053C19.0771 23.9036 18.9378 24.0946 18.9156 24.3157L18.7844 25.6285C18.6892 26.5802 17.8884 27.3049 16.9319 27.3049H12.8548C11.8983 27.3049 11.0975 26.5802 11.0023 25.6285L10.8711 24.3158C10.8489 24.0946 10.7096 23.9036 10.5102 23.8053C10.1143 23.6102 9.7332 23.3895 9.36919 23.1453C9.18438 23.0213 8.94891 22.996 8.74608 23.0875L7.5422 23.6308C6.67042 24.0243 5.64236 23.6931 5.16413 22.8648L3.12556 19.3339C2.64734 18.5056 2.87457 17.4496 3.65118 16.8914L4.72427 16.12C4.9046 15.9904 5.00038 15.7743 4.98586 15.5527C4.97159 15.3349 4.96434 15.1151 4.96434 14.8937C4.96434 14.6722 4.97159 14.4525 4.98586 14.2347C5.00038 14.013 4.9046 13.797 4.72427 13.6674L3.65118 12.896C2.87457 12.3377 2.64734 11.2818 3.12556 10.4535L5.16413 6.92261C5.64236 6.0943 6.67042 5.76313 7.5422 6.15656L8.74606 6.69985C8.94889 6.79139 9.18436 6.76603 9.36917 6.64206C9.73318 6.39788 10.1142 6.17715 10.5102 5.98204C10.7096 5.8838 10.8489 5.69275 10.8711 5.47161L11.0023 4.15887ZM14.8934 19.8582C17.6352 19.8582 19.8579 17.6355 19.8579 14.8937C19.8579 12.1519 17.6352 9.92918 14.8934 9.92918C12.1515 9.92918 9.92885 12.1519 9.92885 14.8937C9.92885 17.6355 12.1515 19.8582 14.8934 19.8582Z" fill="white"/>
</svg>
