<svg width="30" height="30" viewBox="0 0 30 30" fill="none" xmlns="http://www.w3.org/2000/svg">
<path d="M3.72355 2.48242C3.03809 2.48242 2.48242 3.03809 2.48242 3.72355C2.48242 4.409 3.03809 4.96467 3.72355 4.96467H4.96467C5.65013 4.96467 6.2058 5.52034 6.2058 6.2058V17.3759C6.2058 18.7468 7.31714 19.8582 8.68805 19.8582H21.6856C22.805 19.8582 23.7859 19.109 24.0804 18.0291L26.0223 10.9089C26.6683 8.54027 24.8852 6.2058 22.4301 6.2058H8.68805C8.68805 4.14943 7.02104 2.48242 4.96467 2.48242H3.72355Z" fill="white"/>
<path d="M9.30861 27.3049C11.0223 27.3049 12.4114 25.9158 12.4114 24.2021C12.4114 22.4885 11.0223 21.0993 9.30861 21.0993C7.59498 21.0993 6.2058 22.4885 6.2058 24.2021C6.2058 25.9158 7.59498 27.3049 9.30861 27.3049Z" fill="white"/>
<path d="M20.4787 27.3049C22.1924 27.3049 23.5816 25.9158 23.5816 24.2021C23.5816 22.4885 22.1924 21.0993 20.4787 21.0993C18.7651 21.0993 17.3759 22.4885 17.3759 24.2021C17.3759 25.9158 18.7651 27.3049 20.4787 27.3049Z" fill="white"/>
</svg>
