<svg width="232" height="232" viewBox="0 0 232 232" fill="none" xmlns="http://www.w3.org/2000/svg">
<path d="M68.6397 166.62C63.991 166.183 60.3693 164.761 57.7747 162.356C55.2882 159.841 54.0449 156.725 54.0449 153.007C54.0449 148.743 55.5585 144.205 58.5855 139.395L109.992 56.8978C111.83 54.055 113.776 52.0322 115.83 50.8294C117.884 49.5174 120.262 48.8613 122.965 48.8613C128.478 48.8613 131.938 51.5401 133.343 56.8978L155.56 139.395C156.209 142.019 156.533 144.479 156.533 146.775C156.533 152.351 154.803 156.944 151.344 160.552C147.992 164.051 143.398 166.073 137.56 166.62L129.451 136.606H87.4508L68.6397 166.62ZM125.397 115.941L115.992 73.9548L113.559 74.9388L115.992 85.9275L98.1537 115.941H125.397Z" fill="white"/>
<path fill-rule="evenodd" clip-rule="evenodd" d="M62.9151 28.1214L61.5096 15.4951L54.9481 25.0911L42.762 20.0406L49.777 28.7931C44.1788 29.3177 38.3758 31.0802 34.5901 35.4997C31.5918 39.0002 7.16228 74.9987 76.5863 147.499C97.5875 169.43 159.089 229.497 195.589 209.997C203.571 202.987 204.089 196.997 204.089 187.997C204.089 178.672 197.589 162.497 197.589 162.497C197.589 162.497 205.417 183.692 196.089 197.497C173.255 231.288 97.0885 156.997 97.0885 156.997C97.0885 156.997 20.9754 82.4908 35.0887 40.4973C37.2557 34.0494 44.2005 31.3394 50.9686 30.2798L51.6674 31.1517L45.1059 40.2426L56.8229 37.5222L65.7279 48.8285L63.8525 35.6971L76.0382 33.1719L62.9151 28.1214Z" fill="#FF6A3F"/>
<path d="M61.5096 15.4951L62.0066 15.4398L61.8575 14.1006L61.0969 15.2129L61.5096 15.4951ZM62.9151 28.1214L62.4182 28.1767L62.4518 28.4788L62.7355 28.588L62.9151 28.1214ZM54.9481 25.0911L54.7567 25.553L55.1317 25.7084L55.3608 25.3733L54.9481 25.0911ZM42.762 20.0406L42.9535 19.5787L42.3719 20.3533L42.762 20.0406ZM49.777 28.7931L49.8237 29.2909L50.7474 29.2044L50.1672 28.4804L49.777 28.7931ZM34.5901 35.4997L34.9699 35.825L34.9699 35.825L34.5901 35.4997ZM76.5863 147.499L76.2252 147.845L76.2252 147.845L76.5863 147.499ZM195.589 209.997L195.824 210.438L195.875 210.411L195.919 210.373L195.589 209.997ZM197.589 162.497L198.052 162.311L197.119 162.67L197.589 162.497ZM196.089 197.497L195.674 197.217L195.674 197.217L196.089 197.497ZM97.0885 156.997L96.7388 157.354L96.7394 157.355L97.0885 156.997ZM35.0887 40.4973L34.6147 40.338L34.6147 40.338L35.0887 40.4973ZM50.9686 30.2798L51.3588 29.9671L51.1775 29.741L50.8913 29.7858L50.9686 30.2798ZM51.6674 31.1517L52.0729 31.4443L52.2955 31.1358L52.0576 30.839L51.6674 31.1517ZM45.1059 40.2426L44.7005 39.95L43.9201 41.0312L45.219 40.7296L45.1059 40.2426ZM56.8229 37.5222L57.2157 37.2128L57.0192 36.9633L56.7099 37.0351L56.8229 37.5222ZM65.7279 48.8285L65.3351 49.1378L66.4858 50.5989L66.2229 48.7578L65.7279 48.8285ZM63.8525 35.6971L63.751 35.2075L63.2911 35.3029L63.3575 35.7678L63.8525 35.6971ZM76.0382 33.1719L76.1397 33.6615L77.8055 33.3163L76.2178 32.7053L76.0382 33.1719ZM61.0127 15.5504L62.4182 28.1767L63.4121 28.0661L62.0066 15.4398L61.0127 15.5504ZM55.3608 25.3733L61.9224 15.7773L61.0969 15.2129L54.5354 24.8089L55.3608 25.3733ZM42.5706 20.5025L54.7567 25.553L55.1395 24.6292L42.9535 19.5787L42.5706 20.5025ZM50.1672 28.4804L43.1522 19.7279L42.3719 20.3533L49.3869 29.1058L50.1672 28.4804ZM34.9699 35.825C38.6321 31.5495 44.2792 29.8105 49.8237 29.2909L49.7304 28.2953C44.0783 28.8249 38.1194 30.6108 34.2104 35.1745L34.9699 35.825ZM76.9474 147.153C42.2798 110.949 31.105 83.9204 28.9263 65.5655C26.7486 47.2183 33.5521 37.4801 34.9699 35.825L34.2104 35.1745C32.6298 37.0198 25.7194 47.0311 27.9333 65.6833C30.1463 84.3278 41.4688 111.548 76.2252 147.845L76.9474 147.153ZM195.353 209.556C186.384 214.348 175.842 214.273 164.688 211.062C153.532 207.851 141.816 201.517 130.556 193.871C108.038 178.581 87.442 158.112 76.9474 147.153L76.2252 147.845C86.7317 158.816 107.387 179.347 129.995 194.698C141.298 202.373 153.113 208.771 164.411 212.023C175.71 215.276 186.544 215.396 195.824 210.438L195.353 209.556ZM203.589 187.997C203.589 192.5 203.456 196.175 202.356 199.59C201.262 202.987 199.196 206.164 195.259 209.622L195.919 210.373C199.964 206.821 202.148 203.498 203.308 199.897C204.462 196.315 204.589 192.495 204.589 187.997H203.589ZM197.589 162.497C197.125 162.684 197.125 162.684 197.125 162.684C197.125 162.684 197.125 162.684 197.125 162.684C197.125 162.685 197.125 162.685 197.126 162.686C197.126 162.688 197.127 162.691 197.129 162.695C197.132 162.702 197.137 162.714 197.143 162.729C197.155 162.759 197.173 162.805 197.196 162.864C197.244 162.984 197.313 163.161 197.401 163.39C197.578 163.848 197.831 164.514 198.135 165.342C198.742 166.999 199.552 169.304 200.361 171.899C201.986 177.107 203.589 183.418 203.589 187.997H204.589C204.589 183.251 202.941 176.812 201.316 171.601C200.5 168.987 199.685 166.666 199.074 164.998C198.768 164.164 198.513 163.493 198.334 163.03C198.245 162.799 198.175 162.619 198.127 162.498C198.103 162.437 198.084 162.39 198.072 162.359C198.065 162.343 198.061 162.331 198.057 162.323C198.056 162.319 198.055 162.316 198.054 162.314C198.053 162.313 198.053 162.312 198.053 162.312C198.053 162.311 198.053 162.311 198.053 162.311C198.052 162.311 198.052 162.311 197.589 162.497ZM196.503 197.777C201.267 190.727 201.63 181.831 200.834 174.764C200.435 171.222 199.742 168.116 199.149 165.896C198.853 164.785 198.581 163.895 198.382 163.281C198.283 162.974 198.203 162.736 198.147 162.575C198.118 162.494 198.096 162.432 198.081 162.39C198.074 162.369 198.068 162.352 198.064 162.341C198.062 162.336 198.06 162.332 198.059 162.329C198.059 162.327 198.058 162.326 198.058 162.325C198.058 162.325 198.058 162.325 198.058 162.324C198.058 162.324 198.058 162.324 197.589 162.497C197.119 162.67 197.119 162.67 197.119 162.67C197.12 162.67 197.12 162.671 197.12 162.671C197.12 162.671 197.12 162.672 197.121 162.673C197.121 162.675 197.123 162.679 197.124 162.684C197.128 162.693 197.133 162.708 197.14 162.727C197.154 162.766 197.175 162.825 197.202 162.902C197.256 163.058 197.334 163.289 197.431 163.588C197.624 164.188 197.891 165.061 198.183 166.154C198.766 168.339 199.448 171.395 199.84 174.876C200.626 181.858 200.239 190.462 195.674 197.217L196.503 197.777ZM97.0885 156.997C96.7394 157.355 96.7398 157.355 96.7404 157.356C96.741 157.357 96.742 157.357 96.7432 157.359C96.7456 157.361 96.7491 157.364 96.7538 157.369C96.7632 157.378 96.7772 157.392 96.7958 157.41C96.8328 157.446 96.888 157.499 96.9608 157.569C97.1064 157.709 97.3224 157.917 97.6049 158.185C98.17 158.723 99.0011 159.506 100.067 160.491C102.198 162.459 105.267 165.233 109.021 168.456C116.527 174.901 126.78 183.146 137.752 190.337C148.715 197.521 160.439 203.681 170.883 205.913C176.108 207.031 181.044 207.171 185.415 205.94C189.797 204.705 193.583 202.098 196.503 197.777L195.674 197.217C192.886 201.344 189.297 203.807 185.143 204.977C180.978 206.151 176.217 206.031 171.092 204.936C160.832 202.742 149.233 196.665 138.3 189.5C127.377 182.342 117.16 174.127 109.672 167.698C105.929 164.484 102.869 161.718 100.745 159.756C99.6835 158.775 98.8559 157.995 98.2941 157.461C98.0132 157.194 97.7987 156.988 97.6547 156.849C97.5826 156.78 97.5282 156.727 97.4919 156.692C97.4737 156.674 97.4601 156.661 97.451 156.652C97.4465 156.648 97.4431 156.644 97.4409 156.642C97.4397 156.641 97.4389 156.64 97.4384 156.64C97.4379 156.639 97.4376 156.639 97.0885 156.997ZM34.6147 40.338C31.0304 51.0029 33.1901 63.6697 38.3578 76.6019C43.5302 89.5459 51.7472 102.834 60.3909 114.788C69.037 126.745 78.1227 137.385 85.0456 145.035C88.5075 148.86 91.4295 151.939 93.4865 154.062C94.5151 155.123 95.3275 155.946 95.883 156.503C96.1608 156.782 96.3744 156.994 96.5187 157.137C96.5909 157.209 96.6457 157.263 96.6826 157.299C96.701 157.317 96.715 157.331 96.7244 157.34C96.7291 157.345 96.7326 157.348 96.735 157.351C96.7362 157.352 96.7372 157.353 96.7378 157.353C96.7384 157.354 96.7388 157.354 97.0885 156.997C97.4383 156.64 97.4381 156.64 97.4376 156.639C97.437 156.639 97.4362 156.638 97.4351 156.637C97.4329 156.634 97.4295 156.631 97.425 156.627C97.4159 156.618 97.4023 156.604 97.3842 156.587C97.3481 156.551 97.294 156.498 97.2225 156.427C97.0797 156.285 96.8676 156.074 96.5914 155.797C96.0389 155.243 95.2298 154.424 94.2047 153.366C92.1544 151.25 89.2403 148.18 85.7871 144.364C78.8798 136.731 69.8194 126.12 61.2013 114.202C52.5809 102.28 44.4159 89.0675 39.2864 76.2308C34.1522 63.3824 32.0903 50.9883 35.5626 40.6566L34.6147 40.338ZM50.8913 29.7858C44.1028 30.8485 36.88 33.5978 34.6147 40.338L35.5626 40.6566C37.6314 34.501 44.2981 31.8302 51.0459 30.7738L50.8913 29.7858ZM52.0576 30.839L51.3588 29.9671L50.5785 30.5925L51.2773 31.4644L52.0576 30.839ZM45.5113 40.5352L52.0729 31.4443L51.262 30.8591L44.7005 39.95L45.5113 40.5352ZM56.7099 37.0351L44.9928 39.7556L45.219 40.7296L56.936 38.0092L56.7099 37.0351ZM66.1207 48.5191L57.2157 37.2128L56.4301 37.8315L65.3351 49.1378L66.1207 48.5191ZM63.3575 35.7678L65.2329 48.8992L66.2229 48.7578L64.3475 35.6265L63.3575 35.7678ZM75.9367 32.6823L63.751 35.2075L63.9539 36.1867L76.1397 33.6615L75.9367 32.6823ZM62.7355 28.588L75.8586 33.6385L76.2178 32.7053L63.0947 27.6548L62.7355 28.588Z" fill="#FF6A3F"/>
</svg>
