<svg width="232" height="232" viewBox="0 0 232 232" fill="none" xmlns="http://www.w3.org/2000/svg">
<path d="M68.6397 166.62C63.991 166.183 60.3693 164.761 57.7747 162.356C55.2882 159.841 54.0449 156.725 54.0449 153.007C54.0449 148.743 55.5585 144.205 58.5855 139.395L109.992 56.8978C111.83 54.055 113.776 52.0322 115.83 50.8294C117.884 49.5174 120.262 48.8613 122.965 48.8613C128.478 48.8613 131.938 51.5401 133.343 56.8978L155.56 139.395C156.209 142.019 156.533 144.479 156.533 146.775C156.533 152.351 154.803 156.944 151.344 160.552C147.992 164.051 143.398 166.073 137.56 166.62L129.451 136.606H87.4508L68.6397 166.62ZM125.397 115.941L115.992 73.9548L113.559 74.9388L115.992 85.9275L98.1537 115.941H125.397Z" fill="white"/>
<path d="M197.589 156.888C197.589 156.888 206.447 170.143 204.089 182.545C204.082 191.458 203.524 197.419 195.589 204.388C159.089 223.888 97.5875 163.82 76.5863 141.889C7.16227 69.3892 31.5918 33.3906 34.5901 29.8902C44.0457 18.8512 66.0874 24.3891 66.0874 24.3891C66.0874 24.3891 44.7124 19.13 40.0887 32.8877C25.9753 74.8812 102.089 149.388 102.089 149.388C102.089 149.388 178.255 223.678 201.089 189.888C202.665 187.555 203.609 185.068 204.089 182.545C204.089 182.493 204.089 182.44 204.089 182.388C204.089 173.062 197.589 156.888 197.589 156.888Z" fill="white"/>
<path d="M197.589 156.888L198.42 156.332L196.661 157.26L197.589 156.888ZM201.089 189.888L200.26 189.328L200.26 189.328L201.089 189.888ZM102.089 149.388L101.389 150.102L101.39 150.103L102.089 149.388ZM40.0887 32.8877L41.0366 33.2063L40.0887 32.8877ZM66.0874 24.3891L65.8485 25.3601L66.3311 23.4192L66.0874 24.3891ZM34.5901 29.8902L35.3496 30.5407L35.3496 30.5407L34.5901 29.8902ZM195.589 204.388L196.06 205.27L196.162 205.215L196.248 205.139L195.589 204.388ZM76.5863 141.889L75.864 142.581L75.864 142.581L76.5863 141.889ZM197.589 156.888C196.757 157.443 196.757 157.443 196.757 157.443C196.757 157.443 196.757 157.443 196.757 157.443C196.757 157.443 196.757 157.443 196.757 157.444C196.758 157.445 196.759 157.447 196.761 157.449C196.765 157.454 196.77 157.463 196.778 157.474C196.793 157.497 196.816 157.532 196.846 157.58C196.907 157.675 196.997 157.817 197.113 158.005C197.343 158.38 197.672 158.933 198.061 159.636C198.838 161.044 199.852 163.049 200.793 165.433C202.684 170.224 204.234 176.429 203.106 182.359L205.071 182.732C206.302 176.26 204.602 169.635 202.653 164.698C201.674 162.218 200.621 160.134 199.811 158.669C199.406 157.936 199.061 157.356 198.817 156.958C198.694 156.758 198.597 156.604 198.529 156.499C198.495 156.446 198.469 156.406 198.45 156.378C198.441 156.364 198.434 156.353 198.429 156.345C198.426 156.341 198.424 156.338 198.423 156.336C198.422 156.335 198.421 156.334 198.421 156.333C198.421 156.333 198.42 156.333 198.42 156.332C198.42 156.332 198.42 156.332 197.589 156.888ZM203.106 182.359C202.649 184.76 201.753 187.118 200.26 189.328L201.917 190.448C203.577 187.991 204.568 185.375 205.071 182.732L203.106 182.359ZM200.26 189.328C197.537 193.357 194.047 195.749 190.008 196.887C185.946 198.031 181.272 197.922 176.196 196.837C166.028 194.663 154.492 188.627 143.574 181.473C132.676 174.331 122.477 166.13 114.998 159.709C111.26 156.499 108.204 153.738 106.085 151.779C105.025 150.8 104.199 150.022 103.639 149.489C103.359 149.223 103.145 149.018 103.002 148.879C102.93 148.81 102.876 148.758 102.84 148.723C102.822 148.706 102.808 148.693 102.8 148.684C102.795 148.68 102.792 148.677 102.79 148.675C102.789 148.673 102.788 148.673 102.787 148.672C102.787 148.672 102.787 148.672 102.089 149.388C101.39 150.103 101.391 150.104 101.391 150.104C101.392 150.105 101.393 150.106 101.394 150.107C101.397 150.11 101.4 150.113 101.405 150.118C101.415 150.127 101.429 150.141 101.448 150.159C101.485 150.195 101.541 150.249 101.614 150.32C101.76 150.461 101.977 150.669 102.26 150.938C102.827 151.477 103.66 152.262 104.727 153.248C106.862 155.22 109.936 157.999 113.695 161.226C121.21 167.678 131.481 175.939 142.478 183.145C153.456 190.34 165.243 196.541 175.778 198.793C181.054 199.921 186.077 200.072 190.55 198.812C195.047 197.545 198.932 194.866 201.917 190.448L200.26 189.328ZM102.089 149.388C102.788 148.673 102.788 148.673 102.787 148.672C102.787 148.672 102.786 148.671 102.785 148.67C102.783 148.668 102.78 148.665 102.775 148.66C102.766 148.652 102.753 148.638 102.735 148.621C102.699 148.586 102.645 148.533 102.574 148.462C102.432 148.321 102.221 148.111 101.946 147.835C101.395 147.282 100.587 146.464 99.5637 145.408C97.5169 143.296 94.6067 140.23 91.1578 136.419C84.2584 128.795 75.2106 118.198 66.6064 106.299C57.9977 94.3936 49.8587 81.2187 44.7507 68.4357C39.6333 55.6293 37.6202 43.3715 41.0366 33.2063L39.1408 32.5691C35.5005 43.4007 37.7091 56.2038 42.8935 69.1779C48.0873 82.1756 56.3303 95.501 64.9857 107.471C73.6457 119.448 82.7442 130.102 89.6749 137.761C93.1411 141.591 96.067 144.674 98.1275 146.8C99.1577 147.863 99.9717 148.687 100.529 149.246C100.807 149.526 101.022 149.739 101.167 149.883C101.239 149.955 101.295 150.009 101.332 150.046C101.35 150.064 101.365 150.078 101.374 150.088C101.379 150.092 101.383 150.096 101.385 150.098C101.386 150.099 101.387 150.1 101.388 150.101C101.389 150.102 101.389 150.102 102.089 149.388ZM41.0366 33.2063C43.148 26.9238 49.0869 24.8738 54.8902 24.4769C57.7629 24.2805 60.5082 24.501 62.5426 24.7735C63.5576 24.9094 64.3902 25.0576 64.9667 25.1711C65.2547 25.2279 65.4785 25.2759 65.6286 25.3094C65.7037 25.3262 65.7603 25.3392 65.7974 25.3479C65.8159 25.3523 65.8295 25.3555 65.8381 25.3576C65.8424 25.3586 65.8454 25.3594 65.8472 25.3598C65.848 25.36 65.8486 25.3602 65.8488 25.3602C65.8489 25.3602 65.8489 25.3602 65.8489 25.3602C65.8488 25.3602 65.8485 25.3601 66.0874 24.3891C66.3264 23.4181 66.326 23.418 66.3255 23.4178C66.3252 23.4178 66.3247 23.4176 66.3241 23.4175C66.3231 23.4172 66.3217 23.4169 66.32 23.4165C66.3165 23.4157 66.3118 23.4145 66.3058 23.4131C66.2938 23.4102 66.2767 23.4061 66.2546 23.4009C66.2105 23.3906 66.1465 23.3758 66.0639 23.3574C65.8987 23.3205 65.6587 23.269 65.3533 23.2089C64.7427 23.0886 63.8693 22.9333 62.8081 22.7912C60.6902 22.5075 57.8027 22.2731 54.7537 22.4816C48.7136 22.8946 41.6531 25.0939 39.1408 32.5691L41.0366 33.2063ZM66.0874 24.3891C66.3311 23.4192 66.3308 23.4192 66.3303 23.419C66.3301 23.419 66.3295 23.4188 66.329 23.4187C66.328 23.4185 66.3266 23.4181 66.3249 23.4177C66.3215 23.4168 66.3168 23.4157 66.3107 23.4142C66.2986 23.4112 66.2812 23.4069 66.2587 23.4015C66.2136 23.3906 66.148 23.375 66.0629 23.3553C65.8927 23.3159 65.6444 23.2603 65.3265 23.1939C64.6909 23.061 63.7762 22.8846 62.6504 22.7083C60.4012 22.3561 57.297 22.0024 53.8853 22C47.1283 21.9954 38.8586 23.3697 33.8306 29.2396L35.3496 30.5407C39.7772 25.3717 47.2562 23.9954 53.8839 24C57.1646 24.0023 60.1618 24.343 62.341 24.6842C63.4293 24.8547 64.3105 25.0247 64.9172 25.1515C65.2205 25.2149 65.455 25.2675 65.6123 25.3039C65.6909 25.3221 65.7502 25.3362 65.7892 25.3456C65.8086 25.3503 65.823 25.3538 65.8322 25.3561C65.8367 25.3572 65.84 25.358 65.8419 25.3585C65.8429 25.3587 65.8435 25.3589 65.8439 25.359C65.844 25.359 65.844 25.359 65.8441 25.359C65.844 25.359 65.8438 25.359 66.0874 24.3891ZM196.248 205.139C200.323 201.561 202.565 198.183 203.763 194.505C204.949 190.863 205.085 187 205.089 182.546L203.089 182.545C203.085 187.003 202.939 190.577 201.861 193.886C200.795 197.158 198.79 200.246 194.929 203.636L196.248 205.139ZM205.089 182.546C205.089 182.494 205.089 182.441 205.089 182.388H203.089C203.089 182.44 203.089 182.492 203.089 182.545L205.089 182.546ZM205.089 182.388C205.089 177.558 203.419 171.054 201.793 165.843C200.975 163.219 200.156 160.889 199.543 159.216C199.236 158.379 198.98 157.706 198.801 157.241C198.711 157.008 198.64 156.828 198.592 156.705C198.568 156.643 198.549 156.596 198.536 156.564C198.53 156.548 198.525 156.536 198.522 156.528C198.52 156.524 198.519 156.521 198.518 156.518C198.517 156.517 198.517 156.516 198.517 156.516C198.517 156.515 198.517 156.515 198.517 156.515C198.516 156.515 198.516 156.515 197.589 156.888C196.661 157.26 196.661 157.26 196.661 157.26C196.661 157.261 196.661 157.261 196.661 157.261C196.661 157.261 196.661 157.262 196.662 157.263C196.662 157.264 196.663 157.267 196.665 157.271C196.668 157.278 196.672 157.289 196.678 157.304C196.69 157.334 196.708 157.379 196.731 157.438C196.778 157.557 196.847 157.733 196.935 157.961C197.111 158.417 197.363 159.08 197.665 159.905C198.271 161.556 199.077 163.853 199.884 166.438C201.508 171.646 203.089 177.892 203.089 182.388H205.089ZM75.864 142.581C86.3766 153.559 107.061 174.121 129.714 189.502C141.038 197.192 152.903 203.621 164.273 206.894C175.644 210.167 186.624 210.311 196.06 205.27L195.117 203.506C186.304 208.214 175.909 208.162 164.826 204.972C153.742 201.781 142.076 195.479 130.837 187.848C108.364 172.588 87.7972 152.151 77.3085 141.198L75.864 142.581ZM77.3085 141.198C42.6853 105.04 31.5843 78.1071 29.4228 59.897C27.2632 41.7024 34.0133 32.1008 35.3496 30.5407L33.8306 29.2396C32.1686 31.18 25.2047 41.3279 27.4368 60.1327C29.667 78.922 41.0632 106.238 75.864 142.581L77.3085 141.198Z" fill="white"/>
</svg>
