<svg width="845" height="204" viewBox="0 0 845 204" fill="none" xmlns="http://www.w3.org/2000/svg">
<path fill-rule="evenodd" clip-rule="evenodd" d="M41.5918 17.5L40.0924 5L33.0924 14.5L20.092 9.50007L27.9993 18.6554C20.924 18.3567 11.8268 19.3859 6.59013 25.4996C3.59178 29 -20.8377 64.9986 48.5863 137.499C69.5875 159.43 131.089 219.497 167.589 199.997C175.571 192.987 176.089 186.997 176.089 177.997C176.089 168.671 169.589 152.497 169.589 152.497C169.589 152.497 177.417 173.692 168.089 187.497C145.255 221.288 69.0885 146.997 69.0885 146.997C69.0885 146.997 -7.02464 72.4906 7.08867 30.4971C9.90986 22.1028 20.8288 20.0436 28.9135 19.7139L29.5925 20.5L22.5925 29.5L35.0925 26.8068L44.5925 38L42.5918 25L55.5918 22.5L41.5918 17.5Z" fill="#F3F4F5"/>
<path d="M47.699 154.614C42.7396 154.181 38.8759 152.774 36.1079 150.393C33.4552 147.903 32.1289 144.818 32.1289 141.138C32.1289 136.916 33.7436 132.424 36.9729 127.661L91.8142 45.9893C93.7749 43.1749 95.8509 41.1723 98.0422 39.9816C100.234 38.6827 102.771 38.0332 105.654 38.0332C111.536 38.0332 115.227 40.6852 116.726 45.9893L140.427 127.661C141.119 130.259 141.465 132.695 141.465 134.968C141.465 140.488 139.62 145.035 135.929 148.607C132.354 152.071 127.452 154.073 121.224 154.614L112.574 124.901H67.7671L47.699 154.614ZM108.249 104.442L98.2152 62.8757L95.6202 63.8499L98.2152 74.7287L79.1851 104.442H108.249Z" fill="#F3F4F5"/>
<path d="M190.226 154.614C175.117 154.614 163.123 152.395 154.242 147.957C145.476 143.411 141.094 137.295 141.094 129.609C141.094 117.702 149.109 111.749 165.141 111.749C165.026 112.615 164.968 113.914 164.968 115.646C164.968 122.249 167.275 127.282 171.888 130.746C176.501 134.102 183.191 135.78 191.956 135.78C200.145 135.78 206.661 134.318 211.505 131.396C216.349 128.365 218.771 124.36 218.771 119.38C218.771 117.215 218.021 115.375 216.522 113.86C215.023 112.236 212.428 110.775 208.737 109.476C205.162 108.068 200.087 106.607 193.513 105.092C179.788 101.953 169.697 97.9475 163.238 93.0764C156.894 88.0971 153.723 81.8729 153.723 74.4039C153.723 67.0432 155.799 60.6025 159.951 55.082C164.218 49.5614 170.273 45.3398 178.116 42.4172C186.074 39.4945 195.416 38.0332 206.142 38.0332C214.677 38.0332 222.289 39.0074 228.978 40.9559C235.668 42.9043 240.858 45.6646 244.548 49.2367C248.354 52.7006 250.257 56.6516 250.257 61.0896C250.257 71.6978 242.53 77.2725 227.075 77.8137C227.191 76.9477 227.248 75.6488 227.248 73.9168C227.248 67.9633 225.403 63.6334 221.712 60.9273C218.137 58.2211 212.37 56.868 204.412 56.868C196.454 56.868 190.226 58.2211 185.728 60.9273C181.23 63.5252 178.981 67.2056 178.981 71.9684C178.981 75.1075 180.653 77.7054 183.998 79.7621C187.343 81.7105 193.34 83.6049 201.99 85.445C216.407 88.5842 227.018 92.6975 233.822 97.7851C240.627 102.873 244.029 109.259 244.029 116.945C244.029 124.63 241.838 131.341 237.455 137.078C233.188 142.707 226.96 147.037 218.771 150.068C210.698 153.099 201.183 154.614 190.226 154.614Z" fill="#F3F4F5"/>
<path d="M288.551 60.1154H246.685C249.338 46.3682 257.238 39.4945 270.386 39.4945H359.309C356.887 53.2418 348.986 60.1154 335.608 60.1154H313.982L299.45 137.403C298.412 143.032 295.414 147.308 290.454 150.23C285.61 153.153 279.036 154.614 270.732 154.614L288.551 60.1154Z" fill="#F3F4F5"/>
<path d="M360.647 50.3733C361.223 47.2341 362.953 44.6362 365.837 42.5795C368.72 40.5229 371.949 39.4945 375.525 39.4945H420.851C431.923 39.4945 440.4 41.8759 446.282 46.6388C452.279 51.2934 455.278 58.0046 455.278 66.7726C455.278 75.1075 453.375 82.2518 449.569 88.2053C445.763 94.1589 440.169 98.6511 432.788 101.682V102.331C440.285 105.904 444.033 111.749 444.033 119.867C444.033 121.058 443.802 123.169 443.341 126.2L441.265 137.403C440.227 143.032 437.228 147.308 432.269 150.23C427.425 153.153 420.851 154.614 412.547 154.614L417.737 127.012C418.083 125.063 418.256 123.223 418.256 121.491C418.256 118.027 417.333 115.483 415.488 113.86C413.643 112.128 410.817 111.262 407.011 111.262H374.314L369.47 137.403C368.432 143.032 365.491 147.308 360.647 150.23C355.918 153.153 349.402 154.614 341.098 154.614L360.647 50.3733ZM409.779 90.9656C415.776 90.9656 420.563 89.1254 424.138 85.445C427.713 81.7647 429.501 76.7853 429.501 70.5071C429.501 63.3628 424.888 59.7907 415.661 59.7907H384.002L378.12 90.9656H409.779Z" fill="#F3F4F5"/>
<path d="M495.401 154.614C486.405 154.614 478.447 153.153 471.527 150.23C464.722 147.308 459.417 143.303 455.611 138.215C451.92 133.128 450.075 127.499 450.075 121.329C450.075 119.488 450.248 117.594 450.594 115.646L457.86 77.0018C459.359 68.9916 462.934 62.0639 468.586 56.2186C474.352 50.265 481.445 45.7728 489.865 42.7419C498.4 39.6028 507.511 38.0332 517.199 38.0332C525.849 38.0332 533.576 39.5486 540.381 42.5795C547.301 45.5022 552.722 49.5614 556.643 54.7572C560.564 59.8448 562.525 65.4736 562.525 71.6437C562.525 73.3756 562.352 75.1617 562.006 77.0018L554.74 115.646C553.356 123.223 549.896 129.988 544.36 135.942C538.824 141.787 531.789 146.388 523.254 149.743C514.835 152.991 505.55 154.614 495.401 154.614ZM499.207 133.831C507.05 133.831 513.739 132.099 519.275 128.635C524.926 125.171 528.271 120.679 529.309 115.159L536.402 77.4889C536.633 75.9735 536.748 74.8369 536.748 74.0792C536.748 69.3164 534.787 65.5819 530.866 62.8757C526.945 60.1696 521.12 58.8165 513.393 58.8165C505.55 58.8165 498.803 60.5484 493.152 64.0123C487.616 67.4762 484.329 71.9684 483.291 77.4889L476.198 115.159C475.967 116.891 475.852 118.081 475.852 118.731C475.852 123.494 477.755 127.228 481.561 129.934C485.482 132.532 491.364 133.831 499.207 133.831Z" fill="#F3F4F5"/>
<path d="M571.5 153.153V39.4945H621.497C633.837 39.4945 643.526 42.0924 650.561 47.2883C657.596 52.4841 661.114 59.6283 661.114 68.721C661.114 75.4323 659.096 81.1152 655.059 85.7698C651.138 90.3161 645.486 93.5094 638.105 95.3496V96.1614C646.755 97.7851 653.444 101.032 658.173 105.904C663.017 110.775 665.439 116.782 665.439 123.927C665.439 129.88 663.824 135.076 660.595 139.514C657.481 143.844 652.983 147.2 647.101 149.581C641.219 151.962 634.356 153.153 626.514 153.153H571.5ZM621.67 139.352C630.204 139.352 636.952 137.511 641.911 133.831C646.87 130.042 649.35 124.955 649.35 118.568C649.35 112.182 646.813 107.148 641.738 103.468C636.663 99.7877 629.974 97.9475 621.67 97.9475H587.07V139.352H621.67ZM617.864 94.7001C626.398 94.7001 633.146 92.8599 638.105 89.1795C643.064 85.3909 645.544 80.3033 645.544 73.9168C645.544 67.5303 643.064 62.4968 638.105 58.8165C633.146 55.1361 626.398 53.2959 617.864 53.2959H587.07V94.7001H617.864Z" fill="url(#paint0_radial_313_446)"/>
<path d="M695.506 153.153V39.4945H711.076V153.153H695.506Z" fill="url(#paint1_radial_313_446)"/>
<path d="M782.72 153.153V53.6207H735.837V39.4945H845V53.6207H798.29V153.153H782.72Z" fill="url(#paint2_radial_313_446)"/>
<defs>
<radialGradient id="paint0_radial_313_446" cx="0" cy="0" r="1" gradientUnits="userSpaceOnUse" gradientTransform="translate(921.449 96.2788) rotate(178.012) scale(525.983 479.954)">
<stop offset="0.300503" stop-color="#FF9509"/>
<stop offset="1" stop-color="#95132D"/>
</radialGradient>
<radialGradient id="paint1_radial_313_446" cx="0" cy="0" r="1" gradientUnits="userSpaceOnUse" gradientTransform="translate(921.449 96.2788) rotate(178.012) scale(525.983 479.954)">
<stop offset="0.300503" stop-color="#FF9509"/>
<stop offset="1" stop-color="#95132D"/>
</radialGradient>
<radialGradient id="paint2_radial_313_446" cx="0" cy="0" r="1" gradientUnits="userSpaceOnUse" gradientTransform="translate(921.449 96.2788) rotate(178.012) scale(525.983 479.954)">
<stop offset="0.300503" stop-color="#FF9509"/>
<stop offset="1" stop-color="#95132D"/>
</radialGradient>
</defs>
</svg>
