<svg width="910" height="267" viewBox="0 0 910 267" fill="none" xmlns="http://www.w3.org/2000/svg">
<path fill-rule="evenodd" clip-rule="evenodd" d="M106.592 31.5L105.092 19L98.0924 28.5L85.092 23.5001L92.9993 32.6554C85.924 32.3567 76.8268 33.3859 71.5901 39.4996C68.5918 43 44.1623 78.9986 113.586 151.499C134.587 173.43 196.089 233.497 232.589 213.997C240.571 206.987 241.089 200.997 241.089 191.997C241.089 182.671 234.589 166.497 234.589 166.497C234.589 166.497 242.417 187.692 233.089 201.497C210.255 235.288 134.089 160.997 134.089 160.997C134.089 160.997 57.9754 86.4906 72.0887 44.4971C74.9099 36.1028 85.8288 34.0436 93.9135 33.7139L94.5925 34.5L87.5925 43.5L100.092 40.8068L109.593 52L107.592 39L120.592 36.5L106.592 31.5Z" fill="#F3F4F5"/>
<path d="M112.699 168.614C107.74 168.181 103.876 166.774 101.108 164.392C98.4552 161.903 97.1289 158.818 97.1289 155.137C97.1289 150.916 98.7436 146.423 101.973 141.661L156.814 59.9888C158.775 57.1744 160.851 55.1719 163.042 53.9812C165.234 52.6822 167.771 52.0327 170.654 52.0327C176.536 52.0327 180.227 54.6847 181.726 59.9888L205.427 141.661C206.119 144.258 206.465 146.694 206.465 148.967C206.465 154.488 204.62 159.034 200.929 162.606C197.354 166.07 192.452 168.073 186.224 168.614L177.574 138.9H132.767L112.699 168.614ZM173.249 118.442L163.215 76.8752L160.62 77.8494L163.215 88.7282L144.185 118.442H173.249Z" fill="#F3F4F5"/>
<path d="M255.226 168.614C240.117 168.614 228.123 166.395 219.242 161.957C210.476 157.41 206.094 151.294 206.094 143.609C206.094 131.702 214.109 125.748 230.141 125.748C230.026 126.614 229.968 127.913 229.968 129.645C229.968 136.248 232.275 141.282 236.888 144.746C241.501 148.101 248.191 149.779 256.956 149.779C265.145 149.779 271.661 148.318 276.505 145.395C281.349 142.364 283.771 138.359 283.771 133.38C283.771 131.215 283.021 129.375 281.522 127.859C280.023 126.235 277.428 124.774 273.737 123.475C270.162 122.068 265.087 120.607 258.513 119.091C244.788 115.952 234.697 111.947 228.238 107.076C221.894 102.097 218.723 95.8724 218.723 88.4034C218.723 81.0427 220.799 74.6021 224.951 69.0815C229.218 63.5609 235.273 59.3393 243.116 56.4167C251.074 53.494 260.416 52.0327 271.142 52.0327C279.677 52.0327 287.289 53.0069 293.978 54.9554C300.668 56.9038 305.858 59.6641 309.548 63.2362C313.354 66.7001 315.257 70.6511 315.257 75.0892C315.257 85.6973 307.53 91.272 292.075 91.8132C292.191 90.9472 292.248 89.6483 292.248 87.9163C292.248 81.9628 290.403 77.6329 286.712 74.9268C283.137 72.2206 277.37 70.8676 269.412 70.8676C261.454 70.8676 255.226 72.2206 250.728 74.9268C246.23 77.5247 243.981 81.2051 243.981 85.9679C243.981 89.107 245.653 91.7049 248.998 93.7616C252.343 95.7101 258.34 97.6044 266.99 99.4446C281.407 102.584 292.017 106.697 298.822 111.785C305.627 116.872 309.029 123.259 309.029 130.944C309.029 138.63 306.838 145.341 302.455 151.078C298.188 156.707 291.96 161.037 283.771 164.068C275.698 167.098 266.183 168.614 255.226 168.614Z" fill="#F3F4F5"/>
<path d="M353.551 74.1149H311.685C314.338 60.3677 322.238 53.494 335.386 53.494H424.309C421.887 67.2413 413.986 74.1149 400.608 74.1149H378.982L364.45 151.403C363.412 157.032 360.414 161.307 355.454 164.23C350.61 167.153 344.036 168.614 335.732 168.614L353.551 74.1149Z" fill="#F3F4F5"/>
<path d="M425.647 64.3728C426.223 61.2336 427.953 58.6357 430.837 56.5791C433.72 54.5224 436.949 53.494 440.525 53.494H485.851C496.923 53.494 505.4 55.8755 511.282 60.6383C517.279 65.2929 520.278 72.0041 520.278 80.7721C520.278 89.107 518.375 96.2513 514.569 102.205C510.763 108.158 505.169 112.651 497.788 115.681V116.331C505.285 119.903 509.033 125.748 509.033 133.867C509.033 135.058 508.802 137.168 508.341 140.199L506.265 151.403C505.227 157.032 502.228 161.307 497.269 164.23C492.425 167.153 485.851 168.614 477.547 168.614L482.737 141.011C483.083 139.063 483.256 137.222 483.256 135.491C483.256 132.027 482.333 129.483 480.488 127.859C478.643 126.127 475.817 125.261 472.011 125.261H439.314L434.47 151.403C433.432 157.032 430.491 161.307 425.647 164.23C420.918 167.153 414.402 168.614 406.098 168.614L425.647 64.3728ZM474.779 104.965C480.776 104.965 485.563 103.125 489.138 99.4446C492.713 95.7642 494.501 90.7849 494.501 84.5066C494.501 77.3623 489.888 73.7902 480.661 73.7902H449.002L443.12 104.965H474.779Z" fill="#F3F4F5"/>
<path d="M560.401 168.614C551.405 168.614 543.447 167.153 536.527 164.23C529.722 161.307 524.417 157.302 520.611 152.215C516.92 147.127 515.075 141.498 515.075 135.328C515.075 133.488 515.248 131.594 515.594 129.645L522.86 91.0014C524.359 82.9911 527.934 76.0634 533.586 70.2181C539.352 64.2645 546.445 59.7723 554.865 56.7414C563.4 53.6023 572.511 52.0327 582.199 52.0327C590.849 52.0327 598.576 53.5482 605.381 56.5791C612.301 59.5017 617.722 63.5609 621.643 68.7568C625.564 73.8443 627.525 79.4731 627.525 85.6432C627.525 87.3751 627.352 89.1612 627.006 91.0014L619.74 129.645C618.356 137.222 614.896 143.988 609.36 149.941C603.824 155.787 596.789 160.387 588.254 163.743C579.835 166.99 570.55 168.614 560.401 168.614ZM564.207 147.831C572.05 147.831 578.739 146.099 584.275 142.635C589.926 139.171 593.271 134.679 594.309 129.158L601.402 91.4885C601.633 89.973 601.748 88.8364 601.748 88.0787C601.748 83.3159 599.787 79.5814 595.866 76.8752C591.945 74.1691 586.12 72.816 578.393 72.816C570.55 72.816 563.803 74.5479 558.152 78.0118C552.616 81.4757 549.329 85.9679 548.291 91.4885L541.198 129.158C540.967 130.89 540.852 132.081 540.852 132.73C540.852 137.493 542.755 141.228 546.561 143.934C550.482 146.532 556.364 147.831 564.207 147.831Z" fill="#F3F4F5"/>
<path d="M636.5 167.153V53.494H686.497C698.838 53.494 708.526 56.0919 715.561 61.2878C722.596 66.4836 726.114 73.6278 726.114 82.7205C726.114 89.4318 724.096 95.1147 720.059 99.7693C716.138 104.316 710.486 107.509 703.105 109.349V110.161C711.755 111.785 718.444 115.032 723.173 119.903C728.017 124.774 730.439 130.782 730.439 137.926C730.439 143.88 728.824 149.075 725.595 153.514C722.481 157.843 717.983 161.199 712.101 163.58C706.219 165.962 699.357 167.153 691.514 167.153H636.5ZM686.67 153.351C695.204 153.351 701.952 151.511 706.911 147.831C711.87 144.042 714.35 138.954 714.35 132.568C714.35 126.181 711.813 121.148 706.738 117.468C701.663 113.787 694.974 111.947 686.67 111.947H652.07V153.351H686.67ZM682.864 108.7C691.398 108.7 698.146 106.859 703.105 103.179C708.064 99.3904 710.544 94.3029 710.544 87.9163C710.544 81.5298 708.064 76.4964 703.105 72.816C698.146 69.1356 691.398 67.2954 682.864 67.2954H652.07V108.7H682.864Z" fill="url(#paint0_radial_313_446)"/>
<path d="M760.506 167.153V53.494H776.076V167.153H760.506Z" fill="url(#paint1_radial_313_446)"/>
<path d="M847.72 167.153V67.6202H800.837V53.494H910V67.6202H863.29V167.153H847.72Z" fill="url(#paint2_radial_313_446)"/>
<defs>
<radialGradient id="paint0_radial_313_446" cx="0" cy="0" r="1" gradientUnits="userSpaceOnUse" gradientTransform="translate(986.449 110.278) rotate(178.012) scale(525.983 479.954)">
<stop offset="0.300503" stop-color="#FF9509"/>
<stop offset="1" stop-color="#95132D"/>
</radialGradient>
<radialGradient id="paint1_radial_313_446" cx="0" cy="0" r="1" gradientUnits="userSpaceOnUse" gradientTransform="translate(986.449 110.278) rotate(178.012) scale(525.983 479.954)">
<stop offset="0.300503" stop-color="#FF9509"/>
<stop offset="1" stop-color="#95132D"/>
</radialGradient>
<radialGradient id="paint2_radial_313_446" cx="0" cy="0" r="1" gradientUnits="userSpaceOnUse" gradientTransform="translate(986.449 110.278) rotate(178.012) scale(525.983 479.954)">
<stop offset="0.300503" stop-color="#FF9509"/>
<stop offset="1" stop-color="#95132D"/>
</radialGradient>
</defs>
</svg>
